<mxfile host="65bd71144e" modified="2021-03-05T15:48:36.834Z" agent="5.0 (Macintosh; Intel Mac OS X 11_2_2) AppleWebKit/537.36 (KHTML, like Gecko) Code/1.53.2 Chrome/87.0.4280.141 Electron/11.2.1 Safari/537.36" etag="H0yUvwwBSDdIqrmYDp68" version="14.2.4" type="embed">
    <diagram id="XDeFTFk3D3cQ18DPTecF" name="AWS構成図">
        <mxGraphModel dx="717" dy="424" grid="1" gridSize="10" guides="1" tooltips="1" connect="1" arrows="1" fold="1" page="1" pageScale="1" pageWidth="827" pageHeight="1169" math="0" shadow="0">
            <root>
                <mxCell id="0"/>
                <mxCell id="1" parent="0"/>
                <mxCell id="24" value="Private subnet" style="points=[[0,0],[0.25,0],[0.5,0],[0.75,0],[1,0],[1,0.25],[1,0.5],[1,0.75],[1,1],[0.75,1],[0.5,1],[0.25,1],[0,1],[0,0.75],[0,0.5],[0,0.25]];outlineConnect=0;gradientColor=none;html=1;whiteSpace=wrap;fontSize=12;fontStyle=0;shape=mxgraph.aws4.group;grIcon=mxgraph.aws4.group_security_group;grStroke=0;strokeColor=#147EBA;verticalAlign=top;align=left;spacingLeft=30;fontColor=#147EBA;dashed=0;rounded=0;" vertex="1" parent="1">
                    <mxGeometry x="660" y="120" width="370" height="400" as="geometry"/>
                </mxCell>
                <mxCell id="wOAg0Bh6nXVYpZhC8x1t-1" value="VPC" style="points=[[0,0],[0.25,0],[0.5,0],[0.75,0],[1,0],[1,0.25],[1,0.5],[1,0.75],[1,1],[0.75,1],[0.5,1],[0.25,1],[0,1],[0,0.75],[0,0.5],[0,0.25]];outlineConnect=0;gradientColor=none;html=1;whiteSpace=wrap;fontSize=12;fontStyle=0;shape=mxgraph.aws4.group;grIcon=mxgraph.aws4.group_vpc;strokeColor=#248814;fillColor=none;verticalAlign=top;align=left;spacingLeft=30;fontColor=#AAB7B8;dashed=0;" parent="1" vertex="1">
                    <mxGeometry x="90" y="60" width="1340" height="530" as="geometry"/>
                </mxCell>
                <mxCell id="wOAg0Bh6nXVYpZhC8x1t-15" value="Public subnet" style="points=[[0,0],[0.25,0],[0.5,0],[0.75,0],[1,0],[1,0.25],[1,0.5],[1,0.75],[1,1],[0.75,1],[0.5,1],[0.25,1],[0,1],[0,0.75],[0,0.5],[0,0.25]];outlineConnect=0;html=1;whiteSpace=wrap;fontSize=12;fontStyle=0;shape=mxgraph.aws4.group;grIcon=mxgraph.aws4.group_security_group;grStroke=0;strokeColor=#248814;verticalAlign=top;align=left;spacingLeft=30;fontColor=#248814;dashed=0;shadow=0;labelBackgroundColor=none;" parent="1" vertex="1">
                    <mxGeometry x="200" y="120" width="430" height="390" as="geometry"/>
                </mxCell>
                <mxCell id="wOAg0Bh6nXVYpZhC8x1t-11" value="Availability Zone" style="strokeColor=#147EBA;dashed=1;verticalAlign=top;fontStyle=0;fontColor=#147EBA;rounded=0;fillColor=none;" parent="1" vertex="1">
                    <mxGeometry x="170" y="95" width="720" height="440" as="geometry"/>
                </mxCell>
                <object label="" Name="InternetGateway" id="wOAg0Bh6nXVYpZhC8x1t-4">
                    <mxCell style="outlineConnect=0;dashed=0;verticalLabelPosition=bottom;verticalAlign=top;align=center;html=1;shape=mxgraph.aws3.internet_gateway;fillColor=#F58534;gradientColor=none;labelPosition=center;" parent="1" vertex="1">
                        <mxGeometry x="60" y="289" width="69" height="72" as="geometry"/>
                    </mxCell>
                </object>
                <mxCell id="wOAg0Bh6nXVYpZhC8x1t-5" value="InternetGateway&lt;br style=&quot;font-size: 19px;&quot;&gt;" style="text;html=1;strokeColor=none;fillColor=none;align=center;verticalAlign=middle;whiteSpace=wrap;rounded=0;fontSize=19;fontStyle=1" parent="1" vertex="1">
                    <mxGeometry x="9.5" y="351" width="150" height="48" as="geometry"/>
                </mxCell>
                <mxCell id="wOAg0Bh6nXVYpZhC8x1t-6" value="NAT gateway&lt;br&gt;" style="text;html=1;strokeColor=none;fillColor=none;align=center;verticalAlign=middle;whiteSpace=wrap;rounded=0;fontSize=19;" parent="1" vertex="1">
                    <mxGeometry x="280" y="210" width="155.5" height="20" as="geometry"/>
                </mxCell>
                <mxCell id="wOAg0Bh6nXVYpZhC8x1t-7" value="" style="outlineConnect=0;dashed=0;verticalLabelPosition=bottom;verticalAlign=top;align=center;html=1;shape=mxgraph.aws3.vpc_nat_gateway;fillColor=#F58534;gradientColor=none;fontSize=19;" parent="1" vertex="1">
                    <mxGeometry x="310" y="130" width="69" height="72" as="geometry"/>
                </mxCell>
                <mxCell id="wOAg0Bh6nXVYpZhC8x1t-9" value="" style="points=[[0,0,0],[0.25,0,0],[0.5,0,0],[0.75,0,0],[1,0,0],[0,1,0],[0.25,1,0],[0.5,1,0],[0.75,1,0],[1,1,0],[0,0.25,0],[0,0.5,0],[0,0.75,0],[1,0.25,0],[1,0.5,0],[1,0.75,0]];outlineConnect=0;fontColor=#232F3E;gradientColor=#F78E04;gradientDirection=north;fillColor=#D05C17;strokeColor=#ffffff;dashed=0;verticalLabelPosition=bottom;verticalAlign=top;align=center;html=1;fontSize=12;fontStyle=0;aspect=fixed;shape=mxgraph.aws4.resourceIcon;resIcon=mxgraph.aws4.ec2;" parent="1" vertex="1">
                    <mxGeometry x="320" y="370" width="78" height="78" as="geometry"/>
                </mxCell>
                <mxCell id="wOAg0Bh6nXVYpZhC8x1t-10" value="EC2" style="text;html=1;strokeColor=none;fillColor=none;align=center;verticalAlign=middle;whiteSpace=wrap;rounded=0;fontSize=19;" parent="1" vertex="1">
                    <mxGeometry x="340" y="470" width="40" height="20" as="geometry"/>
                </mxCell>
                <mxCell id="wOAg0Bh6nXVYpZhC8x1t-13" value="" style="outlineConnect=0;dashed=0;verticalLabelPosition=bottom;verticalAlign=top;align=center;html=1;shape=mxgraph.aws3.route_table;fillColor=#F58536;gradientColor=none;fontSize=19;" parent="1" vertex="1">
                    <mxGeometry x="440" y="379" width="75" height="69" as="geometry"/>
                </mxCell>
                <mxCell id="wOAg0Bh6nXVYpZhC8x1t-14" value="Route Table&lt;br&gt;" style="text;html=1;strokeColor=none;fillColor=none;align=center;verticalAlign=middle;whiteSpace=wrap;rounded=0;fontSize=19;" parent="1" vertex="1">
                    <mxGeometry x="440" y="460" width="120" height="50" as="geometry"/>
                </mxCell>
                <mxCell id="wOAg0Bh6nXVYpZhC8x1t-27" value="" style="endArrow=none;html=1;fontSize=19;" parent="1" target="wOAg0Bh6nXVYpZhC8x1t-7" edge="1">
                    <mxGeometry width="50" height="50" relative="1" as="geometry">
                        <mxPoint x="130" y="320" as="sourcePoint"/>
                        <mxPoint x="200" y="260" as="targetPoint"/>
                    </mxGeometry>
                </mxCell>
                <mxCell id="8" value="" style="endArrow=none;html=1;exitX=1;exitY=0.5;exitDx=0;exitDy=0;exitPerimeter=0;" edge="1" parent="1" source="wOAg0Bh6nXVYpZhC8x1t-4" target="wOAg0Bh6nXVYpZhC8x1t-9">
                    <mxGeometry width="50" height="50" relative="1" as="geometry">
                        <mxPoint x="320" y="340" as="sourcePoint"/>
                        <mxPoint x="370" y="290" as="targetPoint"/>
                    </mxGeometry>
                </mxCell>
                <mxCell id="11" value="&lt;font style=&quot;font-size: 20px&quot;&gt;10.0.0.0/21&lt;/font&gt;" style="text;html=1;strokeColor=none;fillColor=none;align=center;verticalAlign=middle;whiteSpace=wrap;rounded=0;" vertex="1" parent="1">
                    <mxGeometry x="110" y="20" width="180" height="40" as="geometry"/>
                </mxCell>
                <mxCell id="12" value="&lt;font style=&quot;font-size: 20px&quot;&gt;10.0.0.0/24&lt;/font&gt;" style="text;html=1;strokeColor=none;fillColor=none;align=center;verticalAlign=middle;whiteSpace=wrap;rounded=0;" vertex="1" parent="1">
                    <mxGeometry x="398" y="146" width="132" height="40" as="geometry"/>
                </mxCell>
                <mxCell id="13" value="" style="points=[[0,0,0],[0.25,0,0],[0.5,0,0],[0.75,0,0],[1,0,0],[0,1,0],[0.25,1,0],[0.5,1,0],[0.75,1,0],[1,1,0],[0,0.25,0],[0,0.5,0],[0,0.75,0],[1,0.25,0],[1,0.5,0],[1,0.75,0]];outlineConnect=0;fontColor=#232F3E;gradientColor=#F78E04;gradientDirection=north;fillColor=#D05C17;strokeColor=#ffffff;dashed=0;verticalLabelPosition=bottom;verticalAlign=top;align=center;html=1;fontSize=12;fontStyle=0;aspect=fixed;shape=mxgraph.aws4.resourceIcon;resIcon=mxgraph.aws4.ec2;" vertex="1" parent="1">
                    <mxGeometry x="670" y="370" width="78" height="78" as="geometry"/>
                </mxCell>
                <mxCell id="15" value="" style="endArrow=none;html=1;" edge="1" parent="1" source="13" target="wOAg0Bh6nXVYpZhC8x1t-7">
                    <mxGeometry width="50" height="50" relative="1" as="geometry">
                        <mxPoint x="460" y="320" as="sourcePoint"/>
                        <mxPoint x="510" y="270" as="targetPoint"/>
                    </mxGeometry>
                </mxCell>
                <mxCell id="16" value="" style="outlineConnect=0;dashed=0;verticalLabelPosition=bottom;verticalAlign=top;align=center;html=1;shape=mxgraph.aws3.route_table;fillColor=#F58536;gradientColor=none;fontSize=19;" vertex="1" parent="1">
                    <mxGeometry x="780" y="379" width="75" height="69" as="geometry"/>
                </mxCell>
                <mxCell id="17" value="A" style="text;html=1;strokeColor=none;fillColor=none;align=center;verticalAlign=middle;whiteSpace=wrap;rounded=0;fontSize=19;" vertex="1" parent="1">
                    <mxGeometry x="337.75" y="330" width="40" height="20" as="geometry"/>
                </mxCell>
                <mxCell id="21" value="B" style="text;html=1;strokeColor=none;fillColor=none;align=center;verticalAlign=middle;whiteSpace=wrap;rounded=0;fontSize=19;" vertex="1" parent="1">
                    <mxGeometry x="689" y="315" width="40" height="20" as="geometry"/>
                </mxCell>
                <mxCell id="22" value="Route Table&lt;br&gt;" style="text;html=1;strokeColor=none;fillColor=none;align=center;verticalAlign=middle;whiteSpace=wrap;rounded=0;fontSize=19;" vertex="1" parent="1">
                    <mxGeometry x="780" y="460" width="120" height="50" as="geometry"/>
                </mxCell>
                <mxCell id="23" value="EC2" style="text;html=1;strokeColor=none;fillColor=none;align=center;verticalAlign=middle;whiteSpace=wrap;rounded=0;fontSize=19;" vertex="1" parent="1">
                    <mxGeometry x="690" y="470" width="40" height="20" as="geometry"/>
                </mxCell>
                <mxCell id="25" value="&lt;font style=&quot;font-size: 20px&quot;&gt;10.0.0.0/24&lt;/font&gt;" style="text;html=1;strokeColor=none;fillColor=none;align=center;verticalAlign=middle;whiteSpace=wrap;rounded=0;" vertex="1" parent="1">
                    <mxGeometry x="710" y="146" width="180" height="40" as="geometry"/>
                </mxCell>
            </root>
        </mxGraphModel>
    </diagram>
</mxfile>